<?xml version="1.0" encoding="us-ascii" standalone="no"?><svg xmlns="http://www.w3.org/2000/svg" xmlns:xlink="http://www.w3.org/1999/xlink" contentStyleType="text/css" height="833px" preserveAspectRatio="none" style="width:3176px;height:833px;background:#FFFFFF;" version="1.1" viewBox="0 0 3176 833" width="3176px" zoomAndPan="magnify"><defs/><g><!--cluster DSED_M05_SOAP_Web--><g id="cluster_DSED_M05_SOAP_Web"><path d="M784.5,6 L958.5,6 A3.75,3.75 0 0 1 961,8.5 L968,28.2969 L3166.5,28.2969 A2.5,2.5 0 0 1 3169,30.7969 L3169,823.5 A2.5,2.5 0 0 1 3166.5,826 L784.5,826 A2.5,2.5 0 0 1 782,823.5 L782,8.5 A2.5,2.5 0 0 1 784.5,6 " fill="none" style="stroke:#000000;stroke-width:1.5;"/><line style="stroke:#000000;stroke-width:1.5;" x1="782" x2="968" y1="28.2969" y2="28.2969"/><text fill="#000000" font-family="sans-serif" font-size="14" font-weight="bold" lengthAdjust="spacing" textLength="173" x="786" y="20.9951">DSED_M05_SOAP_Web</text></g><!--cluster Entite--><g id="cluster_Entite"><path d="M1274.5,524 L1324.5,524 A3.75,3.75 0 0 1 1327,526.5 L1334,546.2969 L3142.5,546.2969 A2.5,2.5 0 0 1 3145,548.7969 L3145,799.5 A2.5,2.5 0 0 1 3142.5,802 L1274.5,802 A2.5,2.5 0 0 1 1272,799.5 L1272,526.5 A2.5,2.5 0 0 1 1274.5,524 " fill="none" style="stroke:#000000;stroke-width:1.5;"/><line style="stroke:#000000;stroke-width:1.5;" x1="1272" x2="1334" y1="546.2969" y2="546.2969"/><text fill="#000000" font-family="sans-serif" font-size="14" font-weight="bold" lengthAdjust="spacing" textLength="49" x="1276" y="538.9951">Entite</text></g><!--cluster CasUtilisation--><g id="cluster_CasUtilisation"><path d="M2589.5,150.5 L2705.5,150.5 A3.75,3.75 0 0 1 2708,153 L2715,172.7969 L3142.5,172.7969 A2.5,2.5 0 0 1 3145,175.2969 L3145,489.5 A2.5,2.5 0 0 1 3142.5,492 L2589.5,492 A2.5,2.5 0 0 1 2587,489.5 L2587,153 A2.5,2.5 0 0 1 2589.5,150.5 " fill="none" style="stroke:#000000;stroke-width:1.5;"/><line style="stroke:#000000;stroke-width:1.5;" x1="2587" x2="2715" y1="172.7969" y2="172.7969"/><text fill="#000000" font-family="sans-serif" font-size="14" font-weight="bold" lengthAdjust="spacing" textLength="115" x="2591" y="165.4951">CasUtilisation</text></g><!--cluster PresentationServiceSOAP--><g id="cluster_PresentationServiceSOAP"><path d="M808.5,143 L1015.5,143 A3.75,3.75 0 0 1 1018,145.5 L1025,165.2969 L1407.5,165.2969 A2.5,2.5 0 0 1 1410,167.7969 L1410,489.5 A2.5,2.5 0 0 1 1407.5,492 L808.5,492 A2.5,2.5 0 0 1 806,489.5 L806,145.5 A2.5,2.5 0 0 1 808.5,143 " fill="none" style="stroke:#000000;stroke-width:1.5;"/><line style="stroke:#000000;stroke-width:1.5;" x1="806" x2="1025" y1="165.2969" y2="165.2969"/><text fill="#000000" font-family="sans-serif" font-size="14" font-weight="bold" lengthAdjust="spacing" textLength="206" x="810" y="157.9951">PresentationServiceSOAP</text></g><!--cluster Persistance--><g id="cluster_Persistance"><path d="M1532.5,130 L1628.5,130 A3.75,3.75 0 0 1 1631,132.5 L1638,152.2969 L2560.5,152.2969 A2.5,2.5 0 0 1 2563,154.7969 L2563,497.5 A2.5,2.5 0 0 1 2560.5,500 L1532.5,500 A2.5,2.5 0 0 1 1530,497.5 L1530,132.5 A2.5,2.5 0 0 1 1532.5,130 " fill="none" style="stroke:#000000;stroke-width:1.5;"/><line style="stroke:#000000;stroke-width:1.5;" x1="1530" x2="1638" y1="152.2969" y2="152.2969"/><text fill="#000000" font-family="sans-serif" font-size="14" font-weight="bold" lengthAdjust="spacing" textLength="95" x="1534" y="144.9951">Persistance</text></g><!--cluster DSED_M05_SOAP_Model--><g id="cluster_DSED_M05_SOAP_Model"><path d="M8.5,295.5 L196.5,295.5 A3.75,3.75 0 0 1 199,298 L206,317.7969 L747.5,317.7969 A2.5,2.5 0 0 1 750,320.2969 L750,759 A2.5,2.5 0 0 1 747.5,761.5 L8.5,761.5 A2.5,2.5 0 0 1 6,759 L6,298 A2.5,2.5 0 0 1 8.5,295.5 " fill="none" style="stroke:#000000;stroke-width:1.5;"/><line style="stroke:#000000;stroke-width:1.5;" x1="6" x2="206" y1="317.7969" y2="317.7969"/><text fill="#000000" font-family="sans-serif" font-size="14" font-weight="bold" lengthAdjust="spacing" textLength="187" x="10" y="310.4951">DSED_M05_SOAP_Model</text></g><!--cluster DSED_M05_SOAP_ExempleClientConsole--><g id="cluster_DSED_M05_SOAP_ExempleClientConsole"><path d="M312.5,138.5 L628.5,138.5 A3.75,3.75 0 0 1 631,141 L638,160.7969 L638.5,160.7969 A2.5,2.5 0 0 1 641,163.2969 L641,251 A2.5,2.5 0 0 1 638.5,253.5 L312.5,253.5 A2.5,2.5 0 0 1 310,251 L310,141 A2.5,2.5 0 0 1 312.5,138.5 " fill="none" style="stroke:#000000;stroke-width:1.5;"/><line style="stroke:#000000;stroke-width:1.5;" x1="310" x2="638" y1="160.7969" y2="160.7969"/><text fill="#000000" font-family="sans-serif" font-size="14" font-weight="bold" lengthAdjust="spacing" textLength="315" x="314" y="153.4951">DSED_M05_SOAP_ExempleClientConsole</text></g><!--class Startup--><g id="elem_Startup"><rect codeLine="85" fill="#F1F1F1" height="48" id="Startup" rx="2.5" ry="2.5" style="stroke:#181818;stroke-width:0.5;" width="87" x="1426.5" y="181.5"/><ellipse cx="1441.5" cy="197.5" fill="#ADD1B2" rx="11" ry="11" style="stroke:#181818;stroke-width:1.0;"/><path d="M1443.8438,193.1719 C1442.9063,192.7344 1442.3125,192.5938 1441.4375,192.5938 C1438.8125,192.5938 1436.8125,194.6719 1436.8125,197.3906 L1436.8125,198.5156 C1436.8125,201.0938 1438.9219,202.9844 1441.8125,202.9844 C1443.0313,202.9844 1444.1875,202.6875 1444.9375,202.1406 C1445.5156,201.7344 1445.8438,201.2813 1445.8438,200.8906 C1445.8438,200.4375 1445.4531,200.0469 1444.9844,200.0469 C1444.7656,200.0469 1444.5625,200.125 1444.375,200.3125 C1443.9219,200.7969 1443.9219,200.7969 1443.7344,200.8906 C1443.3125,201.1563 1442.625,201.2813 1441.8594,201.2813 C1439.8125,201.2813 1438.5156,200.1875 1438.5156,198.4844 L1438.5156,197.3906 C1438.5156,195.6094 1439.7656,194.2969 1441.5,194.2969 C1442.0781,194.2969 1442.6875,194.4531 1443.1563,194.7031 C1443.6406,194.9844 1443.8125,195.2031 1443.9063,195.6094 C1443.9688,196.0156 1444,196.1406 1444.1406,196.2656 C1444.2813,196.4063 1444.5156,196.5156 1444.7344,196.5156 C1445,196.5156 1445.2656,196.375 1445.4375,196.1563 C1445.5469,196 1445.5781,195.8125 1445.5781,195.3906 L1445.5781,193.9688 C1445.5781,193.5313 1445.5625,193.4063 1445.4688,193.25 C1445.3125,192.9844 1445.0313,192.8438 1444.7344,192.8438 C1444.4375,192.8438 1444.2344,192.9375 1444.0156,193.25 L1443.8438,193.1719 Z " fill="#000000"/><text fill="#000000" font-family="sans-serif" font-size="14" lengthAdjust="spacing" textLength="55" x="1455.5" y="202.3467">Startup</text><line style="stroke:#181818;stroke-width:0.5;" x1="1427.5" x2="1512.5" y1="213.5" y2="213.5"/><line style="stroke:#181818;stroke-width:0.5;" x1="1427.5" x2="1512.5" y1="221.5" y2="221.5"/></g><!--class Program--><g id="elem_Program"><rect codeLine="87" fill="#F1F1F1" height="64.2969" id="Program" rx="2.5" ry="2.5" style="stroke:#181818;stroke-width:0.5;" width="182" x="1379" y="41"/><ellipse cx="1435.25" cy="57" fill="#ADD1B2" rx="11" ry="11" style="stroke:#181818;stroke-width:1.0;"/><path d="M1437.5938,52.6719 C1436.6563,52.2344 1436.0625,52.0938 1435.1875,52.0938 C1432.5625,52.0938 1430.5625,54.1719 1430.5625,56.8906 L1430.5625,58.0156 C1430.5625,60.5938 1432.6719,62.4844 1435.5625,62.4844 C1436.7813,62.4844 1437.9375,62.1875 1438.6875,61.6406 C1439.2656,61.2344 1439.5938,60.7813 1439.5938,60.3906 C1439.5938,59.9375 1439.2031,59.5469 1438.7344,59.5469 C1438.5156,59.5469 1438.3125,59.625 1438.125,59.8125 C1437.6719,60.2969 1437.6719,60.2969 1437.4844,60.3906 C1437.0625,60.6563 1436.375,60.7813 1435.6094,60.7813 C1433.5625,60.7813 1432.2656,59.6875 1432.2656,57.9844 L1432.2656,56.8906 C1432.2656,55.1094 1433.5156,53.7969 1435.25,53.7969 C1435.8281,53.7969 1436.4375,53.9531 1436.9063,54.2031 C1437.3906,54.4844 1437.5625,54.7031 1437.6563,55.1094 C1437.7188,55.5156 1437.75,55.6406 1437.8906,55.7656 C1438.0313,55.9063 1438.2656,56.0156 1438.4844,56.0156 C1438.75,56.0156 1439.0156,55.875 1439.1875,55.6563 C1439.2969,55.5 1439.3281,55.3125 1439.3281,54.8906 L1439.3281,53.4688 C1439.3281,53.0313 1439.3125,52.9063 1439.2188,52.75 C1439.0625,52.4844 1438.7813,52.3438 1438.4844,52.3438 C1438.1875,52.3438 1437.9844,52.4375 1437.7656,52.75 L1437.5938,52.6719 Z " fill="#000000"/><text fill="#000000" font-family="sans-serif" font-size="14" lengthAdjust="spacing" textLength="61" x="1455.75" y="61.8467">Program</text><line style="stroke:#181818;stroke-width:0.5;" x1="1380" x2="1560" y1="73" y2="73"/><line style="stroke:#181818;stroke-width:0.5;" x1="1380" x2="1560" y1="81" y2="81"/><ellipse cx="1390" cy="94.6484" fill="#84BE84" rx="3" ry="3" style="stroke:#038048;stroke-width:1.0;"/><text fill="#000000" font-family="sans-serif" font-size="14" lengthAdjust="spacing" text-decoration="underline" textLength="156" x="1399" y="97.9951">int main(string[] argv)</text></g><!--class Municipalite--><g id="elem_Municipalite"><rect codeLine="5" fill="#F1F1F1" height="227.2656" id="Municipalite" rx="2.5" ry="2.5" style="stroke:#181818;stroke-width:0.5;" width="1188" x="1941" y="559"/><ellipse cx="2487.25" cy="575" fill="#ADD1B2" rx="11" ry="11" style="stroke:#181818;stroke-width:1.0;"/><path d="M2489.5938,570.6719 C2488.6563,570.2344 2488.0625,570.0938 2487.1875,570.0938 C2484.5625,570.0938 2482.5625,572.1719 2482.5625,574.8906 L2482.5625,576.0156 C2482.5625,578.5938 2484.6719,580.4844 2487.5625,580.4844 C2488.7813,580.4844 2489.9375,580.1875 2490.6875,579.6406 C2491.2656,579.2344 2491.5938,578.7813 2491.5938,578.3906 C2491.5938,577.9375 2491.2031,577.5469 2490.7344,577.5469 C2490.5156,577.5469 2490.3125,577.625 2490.125,577.8125 C2489.6719,578.2969 2489.6719,578.2969 2489.4844,578.3906 C2489.0625,578.6563 2488.375,578.7813 2487.6094,578.7813 C2485.5625,578.7813 2484.2656,577.6875 2484.2656,575.9844 L2484.2656,574.8906 C2484.2656,573.1094 2485.5156,571.7969 2487.25,571.7969 C2487.8281,571.7969 2488.4375,571.9531 2488.9063,572.2031 C2489.3906,572.4844 2489.5625,572.7031 2489.6563,573.1094 C2489.7188,573.5156 2489.75,573.6406 2489.8906,573.7656 C2490.0313,573.9063 2490.2656,574.0156 2490.4844,574.0156 C2490.75,574.0156 2491.0156,573.875 2491.1875,573.6563 C2491.2969,573.5 2491.3281,573.3125 2491.3281,572.8906 L2491.3281,571.4688 C2491.3281,571.0313 2491.3125,570.9063 2491.2188,570.75 C2491.0625,570.4844 2490.7813,570.3438 2490.4844,570.3438 C2490.1875,570.3438 2489.9844,570.4375 2489.7656,570.75 L2489.5938,570.6719 Z " fill="#000000"/><text fill="#000000" font-family="sans-serif" font-size="14" lengthAdjust="spacing" textLength="87" x="2507.75" y="579.8467">Municipalite</text><line style="stroke:#181818;stroke-width:0.5;" x1="1942" x2="3128" y1="591" y2="591"/><ellipse cx="1952" cy="604.6484" fill="none" rx="3" ry="3" style="stroke:#038048;stroke-width:1.0;"/><text fill="#000000" font-family="sans-serif" font-size="14" lengthAdjust="spacing" textLength="300" x="1961" y="607.9951">int CodeGeographique &#171;get; private set;&#187;</text><ellipse cx="1952" cy="620.9453" fill="none" rx="3" ry="3" style="stroke:#038048;stroke-width:1.0;"/><text fill="#000000" font-family="sans-serif" font-size="14" lengthAdjust="spacing" textLength="304" x="1961" y="624.292">string NomMunicipalite &#171;get; private set;&#187;</text><ellipse cx="1952" cy="637.2422" fill="none" rx="3" ry="3" style="stroke:#038048;stroke-width:1.0;"/><text fill="#000000" font-family="sans-serif" font-size="14" lengthAdjust="spacing" textLength="297" x="1961" y="640.5889">string AdresseCourriel &#171;get; private set;&#187;</text><ellipse cx="1952" cy="653.5391" fill="none" rx="3" ry="3" style="stroke:#038048;stroke-width:1.0;"/><text fill="#000000" font-family="sans-serif" font-size="14" lengthAdjust="spacing" textLength="274" x="1961" y="656.8857">string AdresseWeb &#171;get; private set;&#187;</text><ellipse cx="1952" cy="669.8359" fill="none" rx="3" ry="3" style="stroke:#038048;stroke-width:1.0;"/><text fill="#000000" font-family="sans-serif" font-size="14" lengthAdjust="spacing" textLength="378" x="1961" y="673.1826">DateTime DateProchaineElection &#171;get; private set;&#187;</text><ellipse cx="1952" cy="686.1328" fill="none" rx="3" ry="3" style="stroke:#038048;stroke-width:1.0;"/><text fill="#000000" font-family="sans-serif" font-size="14" lengthAdjust="spacing" textLength="209" x="1961" y="689.4795">bool Actif &#171;get; private set;&#187;</text><line style="stroke:#181818;stroke-width:0.5;" x1="1942" x2="3128" y1="696.7813" y2="696.7813"/><ellipse cx="1952" cy="710.4297" fill="#84BE84" rx="3" ry="3" style="stroke:#038048;stroke-width:1.0;"/><text fill="#000000" font-family="sans-serif" font-size="14" lengthAdjust="spacing" textLength="1162" x="1961" y="713.7764">Municipalite(int p_codeGeographique, string p_nomMunicipalite, string p_adresseCourriel, string p_adresseWeb, DateTime p_dateProchaineElection, bool p_actif)</text><ellipse cx="1952" cy="726.7266" fill="#84BE84" rx="3" ry="3" style="stroke:#038048;stroke-width:1.0;"/><text fill="#000000" font-family="sans-serif" font-size="14" lengthAdjust="spacing" textLength="277" x="1961" y="730.0732">public override bool Equals(object obj)</text><ellipse cx="1952" cy="743.0234" fill="#84BE84" rx="3" ry="3" style="stroke:#038048;stroke-width:1.0;"/><text fill="#000000" font-family="sans-serif" font-size="14" lengthAdjust="spacing" textLength="212" x="1961" y="746.3701">&#171;override&#187; int GetHashCode()</text><ellipse cx="1952" cy="759.3203" fill="#84BE84" rx="3" ry="3" style="stroke:#038048;stroke-width:1.0;"/><text fill="#000000" font-family="sans-serif" font-size="14" lengthAdjust="spacing" textLength="432" x="1961" y="762.667">static bool operator ==(Municipalite left, Municipalite right)</text><ellipse cx="1952" cy="775.6172" fill="#84BE84" rx="3" ry="3" style="stroke:#038048;stroke-width:1.0;"/><text fill="#000000" font-family="sans-serif" font-size="14" lengthAdjust="spacing" textLength="426" x="1961" y="778.9639">static bool operator !=(Municipalite left, Municipalite right)</text></g><!--class IDepotMunicipalites--><g id="elem_IDepotMunicipalites"><rect codeLine="19" fill="#F1F1F1" height="129.4844" id="IDepotMunicipalites" rx="2.5" ry="2.5" style="stroke:#181818;stroke-width:0.5;" width="618" x="1288" y="608"/><ellipse cx="1522.75" cy="624" fill="#B4A7E5" rx="11" ry="11" style="stroke:#181818;stroke-width:1.0;"/><path d="M1523.7031,620.7813 L1525.4219,620.7813 C1525.8125,620.7813 1526,620.75 1526.125,620.6719 C1526.3906,620.5156 1526.5313,620.2344 1526.5313,619.9375 C1526.5313,619.6719 1526.4219,619.4063 1526.1875,619.2344 C1526.0156,619.125 1525.875,619.0938 1525.4219,619.0938 L1520.2813,619.0938 C1519.8438,619.0938 1519.7188,619.1094 1519.5625,619.2031 C1519.3125,619.3594 1519.1563,619.6563 1519.1563,619.9375 C1519.1563,620.2188 1519.2969,620.4688 1519.5156,620.6406 C1519.6719,620.75 1519.8594,620.7813 1520.2813,620.7813 L1522,620.7813 L1522,627.2969 L1520.2813,627.2969 C1519.8438,627.2969 1519.7188,627.3125 1519.5625,627.4219 C1519.3125,627.5781 1519.1563,627.8594 1519.1563,628.1563 C1519.1563,628.4063 1519.2969,628.6719 1519.5156,628.8281 C1519.6719,628.9531 1519.875,629 1520.2813,629 L1525.4219,629 C1526.1719,629 1526.5313,628.7188 1526.5313,628.1563 C1526.5313,627.875 1526.4219,627.625 1526.1875,627.4531 C1526.0156,627.3281 1525.875,627.2969 1525.4219,627.2969 L1523.7031,627.2969 L1523.7031,620.7813 Z " fill="#000000"/><text fill="#000000" font-family="sans-serif" font-size="14" font-style="italic" lengthAdjust="spacing" textLength="140" x="1543.25" y="628.8467">IDepotMunicipalites</text><line style="stroke:#181818;stroke-width:0.5;" x1="1289" x2="1905" y1="640" y2="640"/><line style="stroke:#181818;stroke-width:0.5;" x1="1289" x2="1905" y1="648" y2="648"/><ellipse cx="1299" cy="661.6484" fill="#84BE84" rx="3" ry="3" style="stroke:#038048;stroke-width:1.0;"/><text fill="#000000" font-family="sans-serif" font-size="14" lengthAdjust="spacing" textLength="592" x="1308" y="664.9951">Municipalite ChercherMunicipaliteParCodeGeographique(int p_codeGeographique)</text><ellipse cx="1299" cy="677.9453" fill="#84BE84" rx="3" ry="3" style="stroke:#038048;stroke-width:1.0;"/><text fill="#000000" font-family="sans-serif" font-size="14" lengthAdjust="spacing" textLength="401" x="1308" y="681.292">IEnumerable&lt;Municipalite&gt; ListerMunicipalitesActives()</text><ellipse cx="1299" cy="694.2422" fill="#84BE84" rx="3" ry="3" style="stroke:#038048;stroke-width:1.0;"/><text fill="#000000" font-family="sans-serif" font-size="14" lengthAdjust="spacing" textLength="405" x="1308" y="697.5889">void DesactiverMunicipalite(Municipalite p_municipalite)</text><ellipse cx="1299" cy="710.5391" fill="#84BE84" rx="3" ry="3" style="stroke:#038048;stroke-width:1.0;"/><text fill="#000000" font-family="sans-serif" font-size="14" lengthAdjust="spacing" textLength="381" x="1308" y="713.8857">void AjouterMunicipalite(Municipalite p_municipalite)</text><ellipse cx="1299" cy="726.8359" fill="#84BE84" rx="3" ry="3" style="stroke:#038048;stroke-width:1.0;"/><text fill="#000000" font-family="sans-serif" font-size="14" lengthAdjust="spacing" textLength="354" x="1308" y="730.1826">void MAJMunicipalite(Municipalite p_municipalite)</text></g><!--class ManipulationMunicipalites--><g id="elem_ManipulationMunicipalites"><rect codeLine="29" fill="#F1F1F1" height="162.0781" id="ManipulationMunicipalites" rx="2.5" ry="2.5" style="stroke:#181818;stroke-width:0.5;" width="525" x="2603.5" y="314"/><ellipse cx="2768.75" cy="330" fill="#ADD1B2" rx="11" ry="11" style="stroke:#181818;stroke-width:1.0;"/><path d="M2771.0938,325.6719 C2770.1563,325.2344 2769.5625,325.0938 2768.6875,325.0938 C2766.0625,325.0938 2764.0625,327.1719 2764.0625,329.8906 L2764.0625,331.0156 C2764.0625,333.5938 2766.1719,335.4844 2769.0625,335.4844 C2770.2813,335.4844 2771.4375,335.1875 2772.1875,334.6406 C2772.7656,334.2344 2773.0938,333.7813 2773.0938,333.3906 C2773.0938,332.9375 2772.7031,332.5469 2772.2344,332.5469 C2772.0156,332.5469 2771.8125,332.625 2771.625,332.8125 C2771.1719,333.2969 2771.1719,333.2969 2770.9844,333.3906 C2770.5625,333.6563 2769.875,333.7813 2769.1094,333.7813 C2767.0625,333.7813 2765.7656,332.6875 2765.7656,330.9844 L2765.7656,329.8906 C2765.7656,328.1094 2767.0156,326.7969 2768.75,326.7969 C2769.3281,326.7969 2769.9375,326.9531 2770.4063,327.2031 C2770.8906,327.4844 2771.0625,327.7031 2771.1563,328.1094 C2771.2188,328.5156 2771.25,328.6406 2771.3906,328.7656 C2771.5313,328.9063 2771.7656,329.0156 2771.9844,329.0156 C2772.25,329.0156 2772.5156,328.875 2772.6875,328.6563 C2772.7969,328.5 2772.8281,328.3125 2772.8281,327.8906 L2772.8281,326.4688 C2772.8281,326.0313 2772.8125,325.9063 2772.7188,325.75 C2772.5625,325.4844 2772.2813,325.3438 2771.9844,325.3438 C2771.6875,325.3438 2771.4844,325.4375 2771.2656,325.75 L2771.0938,325.6719 Z " fill="#000000"/><text fill="#000000" font-family="sans-serif" font-size="14" lengthAdjust="spacing" textLength="186" x="2789.25" y="334.8467">ManipulationMunicipalites</text><line style="stroke:#181818;stroke-width:0.5;" x1="2604.5" x2="3127.5" y1="346" y2="346"/><rect fill="none" height="6" style="stroke:#C82930;stroke-width:1.0;" width="6" x="2611.5" y="356.6484"/><text fill="#000000" font-family="sans-serif" font-size="14" lengthAdjust="spacing" textLength="312" x="2623.5" y="362.9951">IDepotMunicipalites m_depotMunicipalites;</text><line style="stroke:#181818;stroke-width:0.5;" x1="2604.5" x2="3127.5" y1="370.2969" y2="370.2969"/><ellipse cx="2614.5" cy="383.9453" fill="#84BE84" rx="3" ry="3" style="stroke:#038048;stroke-width:1.0;"/><text fill="#000000" font-family="sans-serif" font-size="14" lengthAdjust="spacing" textLength="499" x="2623.5" y="387.292">ManipulationMunicipalites(IDepotMunicipalites p_depotMunicipalites)</text><ellipse cx="2614.5" cy="400.2422" fill="#84BE84" rx="3" ry="3" style="stroke:#038048;stroke-width:1.0;"/><text fill="#000000" font-family="sans-serif" font-size="14" lengthAdjust="spacing" textLength="398" x="2623.5" y="403.5889">IEnumerable&lt;Municipalite&gt; ObtenirListeMunicipalites()</text><ellipse cx="2614.5" cy="416.5391" fill="#84BE84" rx="3" ry="3" style="stroke:#038048;stroke-width:1.0;"/><text fill="#000000" font-family="sans-serif" font-size="14" lengthAdjust="spacing" textLength="421" x="2623.5" y="419.8857">Municipalite ObtenirMunicipalite(int p_codeGeographique)</text><ellipse cx="2614.5" cy="432.8359" fill="#84BE84" rx="3" ry="3" style="stroke:#038048;stroke-width:1.0;"/><text fill="#000000" font-family="sans-serif" font-size="14" lengthAdjust="spacing" textLength="368" x="2623.5" y="436.1826">void CreerMunicipalite(Municipalite p_municipalite)</text><ellipse cx="2614.5" cy="449.1328" fill="#84BE84" rx="3" ry="3" style="stroke:#038048;stroke-width:1.0;"/><text fill="#000000" font-family="sans-serif" font-size="14" lengthAdjust="spacing" textLength="387" x="2623.5" y="452.4795">void ModifierMunicipalite(Municipalite p_municipalite)</text><ellipse cx="2614.5" cy="465.4297" fill="#84BE84" rx="3" ry="3" style="stroke:#038048;stroke-width:1.0;"/><text fill="#000000" font-family="sans-serif" font-size="14" lengthAdjust="spacing" textLength="404" x="2623.5" y="468.7764">void SupprimerMunicipalite(Municipalite p_municipalite)</text></g><g id="elem_GMN8"><path d="M2623,185.5 L2623,225.7656 A0,0 0 0 0 2623,225.7656 L2862,225.7656 L2866,313.837 L2870,225.7656 L3109,225.7656 A0,0 0 0 0 3109,225.7656 L3109,195.5 L3099,185.5 L2623,185.5 A0,0 0 0 0 2623,185.5 " fill="#FEFFDD" style="stroke:#181818;stroke-width:0.5;"/><path d="M3099,185.5 L3099,195.5 L3109,195.5 L3099,185.5 " fill="#FEFFDD" style="stroke:#181818;stroke-width:0.5;"/><text fill="#000000" font-family="sans-serif" font-size="13" lengthAdjust="spacing" textLength="465" x="2629" y="202.5669">Cette classe permet d'avoir un traitement sp&#233;cifique par cas d'utilisation</text><text fill="#000000" font-family="sans-serif" font-size="13" lengthAdjust="spacing" textLength="458" x="2629" y="217.6997">(Algorithme). Ici, chaque m&#233;thode pourra appeler directement le d&#233;pot.</text></g><!--class MunicipaliteService--><g id="elem_MunicipaliteService"><rect codeLine="42" fill="#F1F1F1" height="162.0781" id="MunicipaliteService" rx="2.5" ry="2.5" style="stroke:#181818;stroke-width:0.5;" width="571" x="822.5" y="314"/><ellipse cx="1033.75" cy="330" fill="#ADD1B2" rx="11" ry="11" style="stroke:#181818;stroke-width:1.0;"/><path d="M1036.0938,325.6719 C1035.1563,325.2344 1034.5625,325.0938 1033.6875,325.0938 C1031.0625,325.0938 1029.0625,327.1719 1029.0625,329.8906 L1029.0625,331.0156 C1029.0625,333.5938 1031.1719,335.4844 1034.0625,335.4844 C1035.2813,335.4844 1036.4375,335.1875 1037.1875,334.6406 C1037.7656,334.2344 1038.0938,333.7813 1038.0938,333.3906 C1038.0938,332.9375 1037.7031,332.5469 1037.2344,332.5469 C1037.0156,332.5469 1036.8125,332.625 1036.625,332.8125 C1036.1719,333.2969 1036.1719,333.2969 1035.9844,333.3906 C1035.5625,333.6563 1034.875,333.7813 1034.1094,333.7813 C1032.0625,333.7813 1030.7656,332.6875 1030.7656,330.9844 L1030.7656,329.8906 C1030.7656,328.1094 1032.0156,326.7969 1033.75,326.7969 C1034.3281,326.7969 1034.9375,326.9531 1035.4063,327.2031 C1035.8906,327.4844 1036.0625,327.7031 1036.1563,328.1094 C1036.2188,328.5156 1036.25,328.6406 1036.3906,328.7656 C1036.5313,328.9063 1036.7656,329.0156 1036.9844,329.0156 C1037.25,329.0156 1037.5156,328.875 1037.6875,328.6563 C1037.7969,328.5 1037.8281,328.3125 1037.8281,327.8906 L1037.8281,326.4688 C1037.8281,326.0313 1037.8125,325.9063 1037.7188,325.75 C1037.5625,325.4844 1037.2813,325.3438 1036.9844,325.3438 C1036.6875,325.3438 1036.4844,325.4375 1036.2656,325.75 L1036.0938,325.6719 Z " fill="#000000"/><text fill="#000000" font-family="sans-serif" font-size="14" lengthAdjust="spacing" textLength="140" x="1054.25" y="334.8467">MunicipaliteService</text><line style="stroke:#181818;stroke-width:0.5;" x1="823.5" x2="1392.5" y1="346" y2="346"/><rect fill="none" height="6" style="stroke:#C82930;stroke-width:1.0;" width="6" x="830.5" y="356.6484"/><text fill="#000000" font-family="sans-serif" font-size="14" lengthAdjust="spacing" textLength="413" x="842.5" y="362.9951">m_manipulationMunicipalites : ManipulationMunicipalites;</text><line style="stroke:#181818;stroke-width:0.5;" x1="823.5" x2="1392.5" y1="370.2969" y2="370.2969"/><ellipse cx="833.5" cy="383.9453" fill="#84BE84" rx="3" ry="3" style="stroke:#038048;stroke-width:1.0;"/><text fill="#000000" font-family="sans-serif" font-size="14" lengthAdjust="spacing" textLength="545" x="842.5" y="387.292">MunicipaliteService(ManipulationMunicipalites p_manipulationMunicipalites)</text><ellipse cx="833.5" cy="400.2422" fill="#84BE84" rx="3" ry="3" style="stroke:#038048;stroke-width:1.0;"/><text fill="#000000" font-family="sans-serif" font-size="14" lengthAdjust="spacing" textLength="468" x="842.5" y="403.5889">IEnumerable&lt;MunicipaliteSOAPDTO&gt; ObtenirListeMunicipalites()</text><ellipse cx="833.5" cy="416.5391" fill="#84BE84" rx="3" ry="3" style="stroke:#038048;stroke-width:1.0;"/><text fill="#000000" font-family="sans-serif" font-size="14" lengthAdjust="spacing" textLength="491" x="842.5" y="419.8857">MunicipaliteSOAPDTO ObtenirMunicipalite(int p_codeGeographique)</text><ellipse cx="833.5" cy="432.8359" fill="#84BE84" rx="3" ry="3" style="stroke:#038048;stroke-width:1.0;"/><text fill="#000000" font-family="sans-serif" font-size="14" lengthAdjust="spacing" textLength="438" x="842.5" y="436.1826">void CreerMunicipalite(MunicipaliteSOAPDTO p_municipalite)</text><ellipse cx="833.5" cy="449.1328" fill="#84BE84" rx="3" ry="3" style="stroke:#038048;stroke-width:1.0;"/><text fill="#000000" font-family="sans-serif" font-size="14" lengthAdjust="spacing" textLength="457" x="842.5" y="452.4795">void ModifierMunicipalite(MunicipaliteSOAPDTO p_municipalite)</text><ellipse cx="833.5" cy="465.4297" fill="#84BE84" rx="3" ry="3" style="stroke:#038048;stroke-width:1.0;"/><text fill="#000000" font-family="sans-serif" font-size="14" lengthAdjust="spacing" textLength="474" x="842.5" y="468.7764">void SupprimerMunicipalite(MunicipaliteSOAPDTO p_municipalite)</text></g><g id="elem_GMN13"><path d="M827.5,178 L827.5,233.3984 A0,0 0 0 0 827.5,233.3984 L1104,233.3984 L1108,313.633 L1112,233.3984 L1388.5,233.3984 A0,0 0 0 0 1388.5,233.3984 L1388.5,188 L1378.5,178 L827.5,178 A0,0 0 0 0 827.5,178 " fill="#FEFFDD" style="stroke:#181818;stroke-width:0.5;"/><path d="M1378.5,178 L1378.5,188 L1388.5,188 L1378.5,178 " fill="#FEFFDD" style="stroke:#181818;stroke-width:0.5;"/><text fill="#000000" font-family="sans-serif" font-size="13" lengthAdjust="spacing" textLength="504" x="833.5" y="195.0669">Cette classe permet d'exposer ManipulationMunicipalites. Il ne doit pas faire de</text><text fill="#000000" font-family="sans-serif" font-size="13" lengthAdjust="spacing" textLength="540" x="833.5" y="210.1997">manipulation algorithmiques autres que des conversions de types et des validations</text><text fill="#000000" font-family="sans-serif" font-size="13" lengthAdjust="spacing" textLength="324" x="833.5" y="225.3325">d'entr&#233;es. Elle ne fait que pr&#233;senter les m&#233;thodes.</text></g><!--class MunicipaliteSQLDTO--><g id="elem_MunicipaliteSQLDTO"><rect codeLine="55" fill="#F1F1F1" height="178.375" id="MunicipaliteSQLDTO" rx="2.5" ry="2.5" style="stroke:#181818;stroke-width:0.5;" width="348" x="2199" y="306"/><ellipse cx="2295.75" cy="322" fill="#ADD1B2" rx="11" ry="11" style="stroke:#181818;stroke-width:1.0;"/><path d="M2298.0938,317.6719 C2297.1563,317.2344 2296.5625,317.0938 2295.6875,317.0938 C2293.0625,317.0938 2291.0625,319.1719 2291.0625,321.8906 L2291.0625,323.0156 C2291.0625,325.5938 2293.1719,327.4844 2296.0625,327.4844 C2297.2813,327.4844 2298.4375,327.1875 2299.1875,326.6406 C2299.7656,326.2344 2300.0938,325.7813 2300.0938,325.3906 C2300.0938,324.9375 2299.7031,324.5469 2299.2344,324.5469 C2299.0156,324.5469 2298.8125,324.625 2298.625,324.8125 C2298.1719,325.2969 2298.1719,325.2969 2297.9844,325.3906 C2297.5625,325.6563 2296.875,325.7813 2296.1094,325.7813 C2294.0625,325.7813 2292.7656,324.6875 2292.7656,322.9844 L2292.7656,321.8906 C2292.7656,320.1094 2294.0156,318.7969 2295.75,318.7969 C2296.3281,318.7969 2296.9375,318.9531 2297.4063,319.2031 C2297.8906,319.4844 2298.0625,319.7031 2298.1563,320.1094 C2298.2188,320.5156 2298.25,320.6406 2298.3906,320.7656 C2298.5313,320.9063 2298.7656,321.0156 2298.9844,321.0156 C2299.25,321.0156 2299.5156,320.875 2299.6875,320.6563 C2299.7969,320.5 2299.8281,320.3125 2299.8281,319.8906 L2299.8281,318.4688 C2299.8281,318.0313 2299.8125,317.9063 2299.7188,317.75 C2299.5625,317.4844 2299.2813,317.3438 2298.9844,317.3438 C2298.6875,317.3438 2298.4844,317.4375 2298.2656,317.75 L2298.0938,317.6719 Z " fill="#000000"/><text fill="#000000" font-family="sans-serif" font-size="14" lengthAdjust="spacing" textLength="146" x="2316.25" y="326.8467">MunicipaliteSQLDTO</text><line style="stroke:#181818;stroke-width:0.5;" x1="2200" x2="2546" y1="338" y2="338"/><ellipse cx="2210" cy="351.6484" fill="none" rx="3" ry="3" style="stroke:#038048;stroke-width:1.0;"/><text fill="#000000" font-family="sans-serif" font-size="14" lengthAdjust="spacing" textLength="265" x="2219" y="354.9951">int MunicipaliteSQLDTOId &#171;get; set;&#187;</text><ellipse cx="2210" cy="367.9453" fill="none" rx="3" ry="3" style="stroke:#038048;stroke-width:1.0;"/><text fill="#000000" font-family="sans-serif" font-size="14" lengthAdjust="spacing" textLength="248" x="2219" y="371.292">string NomMunicipalite &#171;get; set;&#187;</text><ellipse cx="2210" cy="384.2422" fill="none" rx="3" ry="3" style="stroke:#038048;stroke-width:1.0;"/><text fill="#000000" font-family="sans-serif" font-size="14" lengthAdjust="spacing" textLength="241" x="2219" y="387.5889">string AdresseCourriel &#171;get; set;&#187;</text><ellipse cx="2210" cy="400.5391" fill="none" rx="3" ry="3" style="stroke:#038048;stroke-width:1.0;"/><text fill="#000000" font-family="sans-serif" font-size="14" lengthAdjust="spacing" textLength="218" x="2219" y="403.8857">string AdresseWeb &#171;get; set;&#187;</text><ellipse cx="2210" cy="416.8359" fill="none" rx="3" ry="3" style="stroke:#038048;stroke-width:1.0;"/><text fill="#000000" font-family="sans-serif" font-size="14" lengthAdjust="spacing" textLength="322" x="2219" y="420.1826">DateTime DateProchaineElection &#171;get; set;&#187;</text><ellipse cx="2210" cy="433.1328" fill="none" rx="3" ry="3" style="stroke:#038048;stroke-width:1.0;"/><text fill="#000000" font-family="sans-serif" font-size="14" lengthAdjust="spacing" textLength="153" x="2219" y="436.4795">bool Actif &#171;get; set;&#187;</text><line style="stroke:#181818;stroke-width:0.5;" x1="2200" x2="2546" y1="443.7813" y2="443.7813"/><ellipse cx="2210" cy="457.4297" fill="#84BE84" rx="3" ry="3" style="stroke:#038048;stroke-width:1.0;"/><text fill="#000000" font-family="sans-serif" font-size="14" lengthAdjust="spacing" textLength="309" x="2219" y="460.7764">MunicipaliteSQLDTO(Municipalite p_entite)</text><ellipse cx="2210" cy="473.7266" fill="#84BE84" rx="3" ry="3" style="stroke:#038048;stroke-width:1.0;"/><text fill="#000000" font-family="sans-serif" font-size="14" lengthAdjust="spacing" textLength="178" x="2219" y="477.0732">Municipalite VersEntite()</text></g><g id="elem_GMN18"><path d="M2177,193 L2177,218.1328 A0,0 0 0 0 2177,218.1328 L2358.69,218.1328 L2367.83,305.839 L2366.69,218.1328 L2547,218.1328 A0,0 0 0 0 2547,218.1328 L2547,203 L2537,193 L2177,193 A0,0 0 0 0 2177,193 " fill="#FEFFDD" style="stroke:#181818;stroke-width:0.5;"/><path d="M2537,193 L2537,203 L2547,203 L2537,193 " fill="#FEFFDD" style="stroke:#181818;stroke-width:0.5;"/><text fill="#000000" font-family="sans-serif" font-size="13" lengthAdjust="spacing" textLength="349" x="2183" y="210.0669">Propri&#233;t&#233;s et format adapt&#233;s &#224; Entity Framework Core</text></g><!--class DepotMunicipalitesSQL--><g id="elem_DepotMunicipalitesSQL"><rect codeLine="67" fill="#F1F1F1" height="162.0781" id="DepotMunicipalitesSQL" rx="2.5" ry="2.5" style="stroke:#181818;stroke-width:0.5;" width="618" x="1546" y="314"/><ellipse cx="1766.75" cy="330" fill="#ADD1B2" rx="11" ry="11" style="stroke:#181818;stroke-width:1.0;"/><path d="M1769.0938,325.6719 C1768.1563,325.2344 1767.5625,325.0938 1766.6875,325.0938 C1764.0625,325.0938 1762.0625,327.1719 1762.0625,329.8906 L1762.0625,331.0156 C1762.0625,333.5938 1764.1719,335.4844 1767.0625,335.4844 C1768.2813,335.4844 1769.4375,335.1875 1770.1875,334.6406 C1770.7656,334.2344 1771.0938,333.7813 1771.0938,333.3906 C1771.0938,332.9375 1770.7031,332.5469 1770.2344,332.5469 C1770.0156,332.5469 1769.8125,332.625 1769.625,332.8125 C1769.1719,333.2969 1769.1719,333.2969 1768.9844,333.3906 C1768.5625,333.6563 1767.875,333.7813 1767.1094,333.7813 C1765.0625,333.7813 1763.7656,332.6875 1763.7656,330.9844 L1763.7656,329.8906 C1763.7656,328.1094 1765.0156,326.7969 1766.75,326.7969 C1767.3281,326.7969 1767.9375,326.9531 1768.4063,327.2031 C1768.8906,327.4844 1769.0625,327.7031 1769.1563,328.1094 C1769.2188,328.5156 1769.25,328.6406 1769.3906,328.7656 C1769.5313,328.9063 1769.7656,329.0156 1769.9844,329.0156 C1770.25,329.0156 1770.5156,328.875 1770.6875,328.6563 C1770.7969,328.5 1770.8281,328.3125 1770.8281,327.8906 L1770.8281,326.4688 C1770.8281,326.0313 1770.8125,325.9063 1770.7188,325.75 C1770.5625,325.4844 1770.2813,325.3438 1769.9844,325.3438 C1769.6875,325.3438 1769.4844,325.4375 1769.2656,325.75 L1769.0938,325.6719 Z " fill="#000000"/><text fill="#000000" font-family="sans-serif" font-size="14" lengthAdjust="spacing" textLength="168" x="1787.25" y="334.8467">DepotMunicipalitesSQL</text><line style="stroke:#181818;stroke-width:0.5;" x1="1547" x2="2163" y1="346" y2="346"/><rect fill="none" height="6" style="stroke:#C82930;stroke-width:1.0;" width="6" x="1554" y="356.6484"/><text fill="#000000" font-family="sans-serif" font-size="14" lengthAdjust="spacing" textLength="263" x="1566" y="362.9951">m_contexte : ApplicationDbContext</text><line style="stroke:#181818;stroke-width:0.5;" x1="1547" x2="2163" y1="370.2969" y2="370.2969"/><ellipse cx="1557" cy="383.9453" fill="#84BE84" rx="3" ry="3" style="stroke:#038048;stroke-width:1.0;"/><text fill="#000000" font-family="sans-serif" font-size="14" lengthAdjust="spacing" textLength="441" x="1566" y="387.292">DepotMunicipalitesSQL(ApplicationDbContext : m_contexte)</text><ellipse cx="1557" cy="400.2422" fill="#84BE84" rx="3" ry="3" style="stroke:#038048;stroke-width:1.0;"/><text fill="#000000" font-family="sans-serif" font-size="14" lengthAdjust="spacing" textLength="592" x="1566" y="403.5889">Municipalite ChercherMunicipaliteParCodeGeographique(int p_codeGeographique)</text><ellipse cx="1557" cy="416.5391" fill="#84BE84" rx="3" ry="3" style="stroke:#038048;stroke-width:1.0;"/><text fill="#000000" font-family="sans-serif" font-size="14" lengthAdjust="spacing" textLength="401" x="1566" y="419.8857">IEnumerable&lt;Municipalite&gt; ListerMunicipalitesActives()</text><ellipse cx="1557" cy="432.8359" fill="#84BE84" rx="3" ry="3" style="stroke:#038048;stroke-width:1.0;"/><text fill="#000000" font-family="sans-serif" font-size="14" lengthAdjust="spacing" textLength="405" x="1566" y="436.1826">void DesactiverMunicipalite(Municipalite p_municipalite)</text><ellipse cx="1557" cy="449.1328" fill="#84BE84" rx="3" ry="3" style="stroke:#038048;stroke-width:1.0;"/><text fill="#000000" font-family="sans-serif" font-size="14" lengthAdjust="spacing" textLength="381" x="1566" y="452.4795">void AjouterMunicipalite(Municipalite p_municipalite)</text><ellipse cx="1557" cy="465.4297" fill="#84BE84" rx="3" ry="3" style="stroke:#038048;stroke-width:1.0;"/><text fill="#000000" font-family="sans-serif" font-size="14" lengthAdjust="spacing" textLength="354" x="1566" y="468.7764">void MAJMunicipalite(Municipalite p_municipalite)</text></g><!--class ApplicationDbContext--><g id="elem_ApplicationDbContext"><rect codeLine="76" fill="#F1F1F1" height="80.5938" id="ApplicationDbContext" rx="2.5" ry="2.5" style="stroke:#181818;stroke-width:0.5;" width="413" x="1598.5" y="165"/><ellipse cx="1719.25" cy="181" fill="#ADD1B2" rx="11" ry="11" style="stroke:#181818;stroke-width:1.0;"/><path d="M1721.5938,176.6719 C1720.6563,176.2344 1720.0625,176.0938 1719.1875,176.0938 C1716.5625,176.0938 1714.5625,178.1719 1714.5625,180.8906 L1714.5625,182.0156 C1714.5625,184.5938 1716.6719,186.4844 1719.5625,186.4844 C1720.7813,186.4844 1721.9375,186.1875 1722.6875,185.6406 C1723.2656,185.2344 1723.5938,184.7813 1723.5938,184.3906 C1723.5938,183.9375 1723.2031,183.5469 1722.7344,183.5469 C1722.5156,183.5469 1722.3125,183.625 1722.125,183.8125 C1721.6719,184.2969 1721.6719,184.2969 1721.4844,184.3906 C1721.0625,184.6563 1720.375,184.7813 1719.6094,184.7813 C1717.5625,184.7813 1716.2656,183.6875 1716.2656,181.9844 L1716.2656,180.8906 C1716.2656,179.1094 1717.5156,177.7969 1719.25,177.7969 C1719.8281,177.7969 1720.4375,177.9531 1720.9063,178.2031 C1721.3906,178.4844 1721.5625,178.7031 1721.6563,179.1094 C1721.7188,179.5156 1721.75,179.6406 1721.8906,179.7656 C1722.0313,179.9063 1722.2656,180.0156 1722.4844,180.0156 C1722.75,180.0156 1723.0156,179.875 1723.1875,179.6563 C1723.2969,179.5 1723.3281,179.3125 1723.3281,178.8906 L1723.3281,177.4688 C1723.3281,177.0313 1723.3125,176.9063 1723.2188,176.75 C1723.0625,176.4844 1722.7813,176.3438 1722.4844,176.3438 C1722.1875,176.3438 1721.9844,176.4375 1721.7656,176.75 L1721.5938,176.6719 Z " fill="#000000"/><text fill="#000000" font-family="sans-serif" font-size="14" lengthAdjust="spacing" textLength="163" x="1739.75" y="185.8467">ApplicationDbContext</text><line style="stroke:#181818;stroke-width:0.5;" x1="1599.5" x2="2010.5" y1="197" y2="197"/><text fill="#000000" font-family="sans-serif" font-size="14" lengthAdjust="spacing" textLength="15" x="1618.5" y="213.9951">...</text><ellipse cx="1609.5" cy="226.9453" fill="none" rx="3" ry="3" style="stroke:#038048;stroke-width:1.0;"/><text fill="#000000" font-family="sans-serif" font-size="14" lengthAdjust="spacing" textLength="387" x="1618.5" y="230.292">DbSet&lt;MunicipaliteSQLDTO&gt; Municipalite &#171;get; set;&#187;</text><line style="stroke:#181818;stroke-width:0.5;" x1="1599.5" x2="2010.5" y1="237.5938" y2="237.5938"/></g><!--class IMunicipaliteService--><g id="elem_IMunicipaliteService"><rect codeLine="106" fill="#F1F1F1" height="129.4844" id="IMunicipaliteService" rx="2.5" ry="2.5" style="stroke:#181818;stroke-width:0.5;" width="517" x="216.5" y="330.5"/><ellipse cx="399.25" cy="346.5" fill="#B4A7E5" rx="11" ry="11" style="stroke:#181818;stroke-width:1.0;"/><path d="M400.2031,343.2813 L401.9219,343.2813 C402.3125,343.2813 402.5,343.25 402.625,343.1719 C402.8906,343.0156 403.0313,342.7344 403.0313,342.4375 C403.0313,342.1719 402.9219,341.9063 402.6875,341.7344 C402.5156,341.625 402.375,341.5938 401.9219,341.5938 L396.7813,341.5938 C396.3438,341.5938 396.2188,341.6094 396.0625,341.7031 C395.8125,341.8594 395.6563,342.1563 395.6563,342.4375 C395.6563,342.7188 395.7969,342.9688 396.0156,343.1406 C396.1719,343.25 396.3594,343.2813 396.7813,343.2813 L398.5,343.2813 L398.5,349.7969 L396.7813,349.7969 C396.3438,349.7969 396.2188,349.8125 396.0625,349.9219 C395.8125,350.0781 395.6563,350.3594 395.6563,350.6563 C395.6563,350.9063 395.7969,351.1719 396.0156,351.3281 C396.1719,351.4531 396.375,351.5 396.7813,351.5 L401.9219,351.5 C402.6719,351.5 403.0313,351.2188 403.0313,350.6563 C403.0313,350.375 402.9219,350.125 402.6875,349.9531 C402.5156,349.8281 402.375,349.7969 401.9219,349.7969 L400.2031,349.7969 L400.2031,343.2813 Z " fill="#000000"/><text fill="#000000" font-family="sans-serif" font-size="14" font-style="italic" lengthAdjust="spacing" textLength="143" x="419.75" y="351.3467">IMunicipaliteService</text><line style="stroke:#181818;stroke-width:0.5;" x1="217.5" x2="732.5" y1="362.5" y2="362.5"/><line style="stroke:#181818;stroke-width:0.5;" x1="217.5" x2="732.5" y1="370.5" y2="370.5"/><ellipse cx="227.5" cy="384.1484" fill="#84BE84" rx="3" ry="3" style="stroke:#038048;stroke-width:1.0;"/><text fill="#000000" font-family="sans-serif" font-size="14" lengthAdjust="spacing" textLength="468" x="236.5" y="387.4951">IEnumerable&lt;MunicipaliteSOAPDTO&gt; ObtenirListeMunicipalites()</text><ellipse cx="227.5" cy="400.4453" fill="#84BE84" rx="3" ry="3" style="stroke:#038048;stroke-width:1.0;"/><text fill="#000000" font-family="sans-serif" font-size="14" lengthAdjust="spacing" textLength="491" x="236.5" y="403.792">MunicipaliteSOAPDTO ObtenirMunicipalite(int p_codeGeographique)</text><ellipse cx="227.5" cy="416.7422" fill="#84BE84" rx="3" ry="3" style="stroke:#038048;stroke-width:1.0;"/><text fill="#000000" font-family="sans-serif" font-size="14" lengthAdjust="spacing" textLength="438" x="236.5" y="420.0889">void CreerMunicipalite(MunicipaliteSOAPDTO p_municipalite)</text><ellipse cx="227.5" cy="433.0391" fill="#84BE84" rx="3" ry="3" style="stroke:#038048;stroke-width:1.0;"/><text fill="#000000" font-family="sans-serif" font-size="14" lengthAdjust="spacing" textLength="457" x="236.5" y="436.3857">void ModifierMunicipalite(MunicipaliteSOAPDTO p_municipalite)</text><ellipse cx="227.5" cy="449.3359" fill="#84BE84" rx="3" ry="3" style="stroke:#038048;stroke-width:1.0;"/><text fill="#000000" font-family="sans-serif" font-size="14" lengthAdjust="spacing" textLength="474" x="236.5" y="452.6826">void SupprimerMunicipalite(MunicipaliteSOAPDTO p_municipalite)</text></g><g id="elem_GMN41"><path d="M22.5,367.5 L22.5,422.8984 A0,0 0 0 0 22.5,422.8984 L181.5,422.8984 A0,0 0 0 0 181.5,422.8984 L181.5,399 L216.421,395 L181.5,391 L181.5,377.5 L171.5,367.5 L22.5,367.5 A0,0 0 0 0 22.5,367.5 " fill="#FEFFDD" style="stroke:#181818;stroke-width:0.5;"/><path d="M171.5,367.5 L171.5,377.5 L181.5,377.5 L171.5,367.5 " fill="#FEFFDD" style="stroke:#181818;stroke-width:0.5;"/><text fill="#000000" font-family="sans-serif" font-size="13" lengthAdjust="spacing" textLength="138" x="28.5" y="384.5669">Va avoir des attributs</text><text fill="#000000" font-family="sans-serif" font-size="13" lengthAdjust="spacing" textLength="119" x="28.5" y="399.6997">ServiceContract et</text><text fill="#000000" font-family="sans-serif" font-size="13" lengthAdjust="spacing" textLength="118" x="28.5" y="414.8325">OperationContract</text></g><!--class MunicipaliteSOAPDTO--><g id="elem_MunicipaliteSOAPDTO"><rect codeLine="115" fill="#F1F1F1" height="145.7813" id="MunicipaliteSOAPDTO" rx="2.5" ry="2.5" style="stroke:#181818;stroke-width:0.5;" width="348" x="343" y="599.5"/><ellipse cx="434.25" cy="615.5" fill="#ADD1B2" rx="11" ry="11" style="stroke:#181818;stroke-width:1.0;"/><path d="M436.5938,611.1719 C435.6563,610.7344 435.0625,610.5938 434.1875,610.5938 C431.5625,610.5938 429.5625,612.6719 429.5625,615.3906 L429.5625,616.5156 C429.5625,619.0938 431.6719,620.9844 434.5625,620.9844 C435.7813,620.9844 436.9375,620.6875 437.6875,620.1406 C438.2656,619.7344 438.5938,619.2813 438.5938,618.8906 C438.5938,618.4375 438.2031,618.0469 437.7344,618.0469 C437.5156,618.0469 437.3125,618.125 437.125,618.3125 C436.6719,618.7969 436.6719,618.7969 436.4844,618.8906 C436.0625,619.1563 435.375,619.2813 434.6094,619.2813 C432.5625,619.2813 431.2656,618.1875 431.2656,616.4844 L431.2656,615.3906 C431.2656,613.6094 432.5156,612.2969 434.25,612.2969 C434.8281,612.2969 435.4375,612.4531 435.9063,612.7031 C436.3906,612.9844 436.5625,613.2031 436.6563,613.6094 C436.7188,614.0156 436.75,614.1406 436.8906,614.2656 C437.0313,614.4063 437.2656,614.5156 437.4844,614.5156 C437.75,614.5156 438.0156,614.375 438.1875,614.1563 C438.2969,614 438.3281,613.8125 438.3281,613.3906 L438.3281,611.9688 C438.3281,611.5313 438.3125,611.4063 438.2188,611.25 C438.0625,610.9844 437.7813,610.8438 437.4844,610.8438 C437.1875,610.8438 436.9844,610.9375 436.7656,611.25 L436.5938,611.1719 Z " fill="#000000"/><text fill="#000000" font-family="sans-serif" font-size="14" lengthAdjust="spacing" textLength="157" x="454.75" y="620.3467">MunicipaliteSOAPDTO</text><line style="stroke:#181818;stroke-width:0.5;" x1="344" x2="690" y1="631.5" y2="631.5"/><ellipse cx="354" cy="645.1484" fill="none" rx="3" ry="3" style="stroke:#038048;stroke-width:1.0;"/><text fill="#000000" font-family="sans-serif" font-size="14" lengthAdjust="spacing" textLength="244" x="363" y="648.4951">int CodeGeographique &#171;get; set;&#187;</text><ellipse cx="354" cy="661.4453" fill="none" rx="3" ry="3" style="stroke:#038048;stroke-width:1.0;"/><text fill="#000000" font-family="sans-serif" font-size="14" lengthAdjust="spacing" textLength="248" x="363" y="664.792">string NomMunicipalite &#171;get; set;&#187;</text><ellipse cx="354" cy="677.7422" fill="none" rx="3" ry="3" style="stroke:#038048;stroke-width:1.0;"/><text fill="#000000" font-family="sans-serif" font-size="14" lengthAdjust="spacing" textLength="241" x="363" y="681.0889">string AdresseCourriel &#171;get; set;&#187;</text><ellipse cx="354" cy="694.0391" fill="none" rx="3" ry="3" style="stroke:#038048;stroke-width:1.0;"/><text fill="#000000" font-family="sans-serif" font-size="14" lengthAdjust="spacing" textLength="218" x="363" y="697.3857">string AdresseWeb &#171;get; set;&#187;</text><ellipse cx="354" cy="710.3359" fill="none" rx="3" ry="3" style="stroke:#038048;stroke-width:1.0;"/><text fill="#000000" font-family="sans-serif" font-size="14" lengthAdjust="spacing" textLength="322" x="363" y="713.6826">DateTime DateProchaineElection &#171;get; set;&#187;</text><ellipse cx="354" cy="726.6328" fill="none" rx="3" ry="3" style="stroke:#038048;stroke-width:1.0;"/><text fill="#000000" font-family="sans-serif" font-size="14" lengthAdjust="spacing" textLength="153" x="363" y="729.9795">bool Actif &#171;get; set;&#187;</text><line style="stroke:#181818;stroke-width:0.5;" x1="344" x2="690" y1="737.2813" y2="737.2813"/></g><g id="elem_GMN45"><path d="M156.5,645 L156.5,700.3984 A0,0 0 0 0 156.5,700.3984 L307.5,700.3984 A0,0 0 0 0 307.5,700.3984 L307.5,676.5 L342.858,672.5 L307.5,668.5 L307.5,655 L297.5,645 L156.5,645 A0,0 0 0 0 156.5,645 " fill="#FEFFDD" style="stroke:#181818;stroke-width:0.5;"/><path d="M297.5,645 L297.5,655 L307.5,655 L297.5,645 " fill="#FEFFDD" style="stroke:#181818;stroke-width:0.5;"/><text fill="#000000" font-family="sans-serif" font-size="13" lengthAdjust="spacing" textLength="130" x="162.5" y="662.0669">Propri&#233;t&#233;s et format</text><text fill="#000000" font-family="sans-serif" font-size="13" lengthAdjust="spacing" textLength="125" x="162.5" y="677.1997">adapt&#233;s aux clients</text><text fill="#000000" font-family="sans-serif" font-size="13" lengthAdjust="spacing" textLength="105" x="162.5" y="692.3325">du service SOAP</text></g><!--class Program--><g id="elem_Program"><rect codeLine="129" fill="#F1F1F1" height="64.2969" id="Program" rx="2.5" ry="2.5" style="stroke:#181818;stroke-width:0.5;" width="182" x="384" y="173.5"/><ellipse cx="440.25" cy="189.5" fill="#ADD1B2" rx="11" ry="11" style="stroke:#181818;stroke-width:1.0;"/><path d="M442.5938,185.1719 C441.6563,184.7344 441.0625,184.5938 440.1875,184.5938 C437.5625,184.5938 435.5625,186.6719 435.5625,189.3906 L435.5625,190.5156 C435.5625,193.0938 437.6719,194.9844 440.5625,194.9844 C441.7813,194.9844 442.9375,194.6875 443.6875,194.1406 C444.2656,193.7344 444.5938,193.2813 444.5938,192.8906 C444.5938,192.4375 444.2031,192.0469 443.7344,192.0469 C443.5156,192.0469 443.3125,192.125 443.125,192.3125 C442.6719,192.7969 442.6719,192.7969 442.4844,192.8906 C442.0625,193.1563 441.375,193.2813 440.6094,193.2813 C438.5625,193.2813 437.2656,192.1875 437.2656,190.4844 L437.2656,189.3906 C437.2656,187.6094 438.5156,186.2969 440.25,186.2969 C440.8281,186.2969 441.4375,186.4531 441.9063,186.7031 C442.3906,186.9844 442.5625,187.2031 442.6563,187.6094 C442.7188,188.0156 442.75,188.1406 442.8906,188.2656 C443.0313,188.4063 443.2656,188.5156 443.4844,188.5156 C443.75,188.5156 444.0156,188.375 444.1875,188.1563 C444.2969,188 444.3281,187.8125 444.3281,187.3906 L444.3281,185.9688 C444.3281,185.5313 444.3125,185.4063 444.2188,185.25 C444.0625,184.9844 443.7813,184.8438 443.4844,184.8438 C443.1875,184.8438 442.9844,184.9375 442.7656,185.25 L442.5938,185.1719 Z " fill="#000000"/><text fill="#000000" font-family="sans-serif" font-size="14" lengthAdjust="spacing" textLength="61" x="460.75" y="194.3467">Program</text><line style="stroke:#181818;stroke-width:0.5;" x1="385" x2="565" y1="205.5" y2="205.5"/><line style="stroke:#181818;stroke-width:0.5;" x1="385" x2="565" y1="213.5" y2="213.5"/><ellipse cx="395" cy="227.1484" fill="#84BE84" rx="3" ry="3" style="stroke:#038048;stroke-width:1.0;"/><text fill="#000000" font-family="sans-serif" font-size="14" lengthAdjust="spacing" text-decoration="underline" textLength="156" x="404" y="230.4951">int main(string[] argv)</text></g><!--link DepotMunicipalitesSQL to MunicipaliteSQLDTO--><g id="link_DepotMunicipalitesSQL_MunicipaliteSQLDTO"><path codeLine="81" d="M2164.08,395 C2173.93,395 2183.77,395 2193.62,395 " fill="none" id="DepotMunicipalitesSQL-to-MunicipaliteSQLDTO" style="stroke:#181818;stroke-width:1.0;stroke-dasharray:7.0,7.0;"/><polygon fill="#181818" points="2198.76,395,2189.76,391,2193.76,395,2189.76,399,2198.76,395" style="stroke:#181818;stroke-width:1.0;"/></g><!--reverse link ApplicationDbContext to DepotMunicipalitesSQL--><g id="link_ApplicationDbContext_DepotMunicipalitesSQL"><path codeLine="82" d="M1816.98,251.438 C1821.97,270.136 1827.91,292.425 1833.6,313.761 " fill="none" id="ApplicationDbContext-backto-DepotMunicipalitesSQL" style="stroke:#181818;stroke-width:1.0;stroke-dasharray:7.0,7.0;"/><polygon fill="#181818" points="1815.6,246.264,1814.0558,255.991,1816.8892,251.0949,1821.7853,253.9283,1815.6,246.264" style="stroke:#181818;stroke-width:1.0;"/></g><!--link Program to Startup--><g id="link_Program_Startup"><path codeLine="91" d="M1470,105.258 C1470,126.807 1470,155.219 1470,176.119 " fill="none" id="Program-to-Startup" style="stroke:#181818;stroke-width:1.0;stroke-dasharray:7.0,7.0;"/><polygon fill="#181818" points="1470,181.262,1474,172.262,1470,176.262,1466,172.262,1470,181.262" style="stroke:#181818;stroke-width:1.0;"/></g><!--link Startup to DepotMunicipalitesSQL--><g id="link_Startup_DepotMunicipalitesSQL"><path codeLine="92" d="M1491.5,229.713 C1502.3,240.406 1516.03,252.654 1530,261.5 C1559.19,279.988 1591.4,296.787 1623.86,311.738 " fill="none" id="Startup-to-DepotMunicipalitesSQL" style="stroke:#181818;stroke-width:1.0;stroke-dasharray:7.0,7.0;"/><polygon fill="#181818" points="1628.65,313.931,1622.1372,306.5429,1624.1053,311.8464,1618.8018,313.8145,1628.65,313.931" style="stroke:#181818;stroke-width:1.0;"/></g><!--link Startup to ApplicationDbContext--><g id="link_Startup_ApplicationDbContext"><path codeLine="93" d="M1513.51,205.5 C1540.02,205.5 1566.53,205.5 1593.04,205.5 " fill="none" id="Startup-to-ApplicationDbContext" style="stroke:#181818;stroke-width:1.0;stroke-dasharray:7.0,7.0;"/><polygon fill="#181818" points="1598.34,205.5,1589.34,201.5,1593.34,205.5,1589.34,209.5,1598.34,205.5" style="stroke:#181818;stroke-width:1.0;"/></g><!--link Startup to IDepotMunicipalites--><g id="link_Startup_IDepotMunicipalites"><path codeLine="94" d="M1473.04,229.561 C1480.1,280.531 1499.36,406.31 1530,508 C1539.58,539.792 1553.04,573.928 1565.38,602.743 " fill="none" id="Startup-to-IDepotMunicipalites" style="stroke:#181818;stroke-width:1.0;stroke-dasharray:7.0,7.0;"/><polygon fill="#181818" points="1567.51,607.689,1567.6284,597.8409,1565.5344,603.0959,1560.2794,601.0018,1567.51,607.689" style="stroke:#181818;stroke-width:1.0;"/></g><!--link Startup to ManipulationMunicipalites--><g id="link_Startup_ManipulationMunicipalites"><path codeLine="95" d="M1488.19,229.774 C1498.93,241.622 1513.62,254.89 1530,261.5 C1636.47,304.466 2450.07,266.766 2563,287.5 C2595.41,293.45 2629,302.328 2661.5,312.465 " fill="none" id="Startup-to-ManipulationMunicipalites" style="stroke:#181818;stroke-width:1.0;stroke-dasharray:7.0,7.0;"/><polygon fill="#181818" points="2666.29,313.97,2658.9044,307.4544,2661.5203,312.4701,2656.5046,315.0859,2666.29,313.97" style="stroke:#181818;stroke-width:1.0;"/></g><!--link Startup to MunicipaliteService--><g id="link_Startup_MunicipaliteService"><path codeLine="96" d="M1448.39,229.551 C1437.57,240.207 1423.85,252.471 1410,261.5 C1382,279.753 1351.06,296.572 1319.99,311.661 " fill="none" id="Startup-to-MunicipaliteService" style="stroke:#181818;stroke-width:1.0;stroke-dasharray:7.0,7.0;"/><polygon fill="#181818" points="1315.4,313.875,1325.2441,313.5687,1319.9037,311.7032,1321.7692,306.3628,1315.4,313.875" style="stroke:#181818;stroke-width:1.0;"/></g><!--link ManipulationMunicipalites to IDepotMunicipalites--><g id="link_ManipulationMunicipalites_IDepotMunicipalites"><path codeLine="97" d="M2679.71,476.126 C2641.75,489.229 2601.6,500.845 2563,508 C2493.07,520.961 1992.26,499.871 1923,516 C1846.36,533.846 1766.52,571.561 1705.04,605.377 " fill="none" id="ManipulationMunicipalites-to-IDepotMunicipalites" style="stroke:#181818;stroke-width:1.0;"/><polygon fill="#181818" points="1700.65,607.805,1710.4626,606.9608,1705.0282,605.3901,1706.5988,599.9557,1700.65,607.805" style="stroke:#181818;stroke-width:1.0;"/></g><!--link ManipulationMunicipalites to Municipalite--><g id="link_ManipulationMunicipalites_Municipalite"><path codeLine="98" d="M2769.82,476.056 C2739.92,500.941 2706.34,528.891 2674.13,555.703 " fill="none" id="ManipulationMunicipalites-to-Municipalite" style="stroke:#181818;stroke-width:1.0;stroke-dasharray:7.0,7.0;"/><polygon fill="#181818" points="2670.2,558.966,2679.6757,556.2807,2674.0423,555.7665,2674.5565,550.133,2670.2,558.966" style="stroke:#181818;stroke-width:1.0;"/></g><!--link MunicipaliteService to ManipulationMunicipalites--><g id="link_MunicipaliteService_ManipulationMunicipalites"><path codeLine="99" d="M1358.35,313.956 C1419.57,297.598 1485.36,282.864 1547.5,274.5 C1602.45,267.104 2490.95,264.584 2545.5,274.5 C2590.08,282.604 2636.53,296.564 2679.77,312.175 " fill="none" id="MunicipaliteService-to-ManipulationMunicipalites" style="stroke:#181818;stroke-width:1.0;"/><polygon fill="#181818" points="2684.49,313.888,2677.4055,307.0462,2679.7927,312.1747,2674.6642,314.5619,2684.49,313.888" style="stroke:#181818;stroke-width:1.0;"/></g><!--link DepotMunicipalitesSQL to IDepotMunicipalites--><g id="link_DepotMunicipalitesSQL_IDepotMunicipalites"><path codeLine="100" d="M1780.03,476.056 C1745.51,512.919 1704.69,556.51 1670.36,593.161 " fill="none" id="DepotMunicipalitesSQL-to-IDepotMunicipalites" style="stroke:#181818;stroke-width:1.0;stroke-dasharray:7.0,7.0;"/><polygon fill="none" points="1675.36,598.065,1656.58,607.878,1665.14,588.495,1675.36,598.065" style="stroke:#181818;stroke-width:1.0;"/></g><!--link DepotMunicipalitesSQL to Municipalite--><g id="link_DepotMunicipalitesSQL_Municipalite"><path codeLine="101" d="M2052.6,476.056 C2115.02,501.345 2185.25,529.801 2252.41,557.009 " fill="none" id="DepotMunicipalitesSQL-to-Municipalite" style="stroke:#181818;stroke-width:1.0;stroke-dasharray:7.0,7.0;"/><polygon fill="#181818" points="2257.24,558.966,2250.3925,551.887,2252.6038,557.0938,2247.397,559.305,2257.24,558.966" style="stroke:#181818;stroke-width:1.0;"/></g><!--link IMunicipaliteService to MunicipaliteSOAPDTO--><g id="link_IMunicipaliteService_MunicipaliteSOAPDTO"><path codeLine="125" d="M484.688,459.551 C490.788,499.559 498.701,551.47 505.17,593.903 " fill="none" id="IMunicipaliteService-to-MunicipaliteSOAPDTO" style="stroke:#181818;stroke-width:1.0;stroke-dasharray:7.0,7.0;"/><polygon fill="#181818" points="505.952,599.03,508.5485,589.5296,505.1977,594.0872,500.6401,590.7364,505.952,599.03" style="stroke:#181818;stroke-width:1.0;"/></g><!--link Startup to IMunicipaliteService--><g id="link_Startup_IMunicipaliteService"><path codeLine="135" d="M1451.77,229.659 C1441.01,241.473 1426.32,254.744 1410,261.5 C1285.87,312.885 938.244,263.824 806,287.5 C753.616,296.878 698.059,312.427 647.725,328.784 " fill="none" id="Startup-to-IMunicipaliteService" style="stroke:#181818;stroke-width:1.0;stroke-dasharray:7.0,7.0;"/><polygon fill="#181818" points="642.871,330.369,652.6679,331.3797,647.6243,328.8179,650.1861,323.7743,642.871,330.369" style="stroke:#181818;stroke-width:1.0;"/></g><!--link MunicipaliteService to IMunicipaliteService--><g id="link_MunicipaliteService_IMunicipaliteService"><path codeLine="136" d="M822.159,395 C799.354,395 776.548,395 753.743,395 " fill="none" id="MunicipaliteService-to-IMunicipaliteService" style="stroke:#181818;stroke-width:1.0;stroke-dasharray:7.0,7.0;"/><polygon fill="none" points="753.702,402,733.702,395,753.702,388,753.702,402" style="stroke:#181818;stroke-width:1.0;"/></g><!--link MunicipaliteService to MunicipaliteSOAPDTO--><g id="link_MunicipaliteService_MunicipaliteSOAPDTO"><path codeLine="137" d="M936.264,476.056 C854.23,514.297 756.663,559.779 676.3,597.241 " fill="none" id="MunicipaliteService-to-MunicipaliteSOAPDTO" style="stroke:#181818;stroke-width:1.0;stroke-dasharray:7.0,7.0;"/><polygon fill="#181818" points="671.518,599.47,681.3653,599.2932,676.0499,597.3576,677.9854,592.0422,671.518,599.47" style="stroke:#181818;stroke-width:1.0;"/></g><!--link Program to IMunicipaliteService--><g id="link_Program_IMunicipaliteService"><path codeLine="138" d="M475,237.883 C475,261.634 475,295.158 475,325.055 " fill="none" id="Program-to-IMunicipaliteService" style="stroke:#181818;stroke-width:1.0;stroke-dasharray:7.0,7.0;"/><polygon fill="#181818" points="475,330.205,479,321.205,475,325.205,471,321.205,475,330.205" style="stroke:#181818;stroke-width:1.0;"/></g><!--SRC=[xLdDSjis4BxhARQdIXDRqqilZA8PZQIcxiIrEqhJGztHGEHAGa8I202gphX-brxz77wnBaXAuWyeKNR_3jPCHZA8tSNkVhlxWT5e86OHQibydA5aYXcXmFCw7Lhvn5O8azbqCh_yvjlvx6fqFVy55t3N0Vhin60Q6sumNxOVFsHQmsKISvzB5fOVsiyhuB61iGZmBOgLOdBDFoS8Wm6iqBm6gVY6aP2sVmo75L5j58zNyAE8IXPE4Xu52hN6iKYKuXW-ITY6eftSX1wzvn6cFwwLyDUCnpWDqJTSn2sLB8G8OKGIovO2nUXqRRpbtAz4_6phafp7vN0Mdh1ohEfFA11dUn_bF71vUPOvG4BMXLxbh39PXDm7iK6o4M2sT_evOQ7kYiL7KW7qLPKQ3BO2ms6AgBTelcTwRO7LxTMInmoPI3KBYHdGtxpfba0KujASbP6h-6fjMYdxwcHbzvtTJpe-ggKjfui9Ic6AOhfMFYMbupKgd_uL5w-PgfPN0mQghbrCuoGYZnOX3eeQX_2EQrEseYqUDwXhmTu87i04DKkVbsJACPBpgF2dKyteeqZCCtLSZduuNVw-KyZHljsDcVxPy91hbbPlhUsncCiaJ1yUIkAvCz7HFAWjlguclyb2rwLHEZIsp_dLmc3CLPhwigtU8KZcOYrQa3DTOuNFJRW8-98_KyaiaTHYewTekT_zYWLjCqA2M3PdpeCn6jgNGeYqeefeCWTVCpg7WYG6enZjYv1YgENZWq_EsOb90njyfcbdieVaJTmTXIkXk5b7sEl3XS_FWBgn5OWU7yoQKW3IjdC6J4eCKK705JNPp42843m-46RwdRqhbIAufivFUrDxCrGRJlI1-C514f3lgzL1D8yQQyPhZjdh0m3CJNMRYr4s6srR7TRXoVkhfnP9BlxFrihMoDzHCYVeEbuvnvGr550znqsbWxTIQ49s8mIeC4A82Uk2Kx2fY9QCYW02l8cBq02shIMR0WqiCOHziCKKqBSlOXfmcZPI5T8vlqXQj0UWhmqP2b8b-YQc4yL6FJvOmzEGQenCaqMJQfBqmDOJdJUqKo2lKjrtZw1hQv4uIEmVfjspdzxP6Bl8TttRHR0ZbayYtayYtASIxMSHxDR4-ZYXpa9MdGMOteGEJiOFbBhimjGz2UofFO_whg328dWGNYpCba95p00Bc4oN7l_ChcDVu3j5SFbTg4zqprAuCr11Ivqma2L7XoQO6xobitamafAuUWhhoMAShLVpuTBQTGcIlhtotWlB_QzOxXuHpYoL0T7lzwi9NypG3Eg07KAbLUpAgr1TUNjpGx4_TDJ1eVq9IJH2D3ULUJepJ9b4mbrfbIgCK1CLN7u5Tzbzxpxjd17rbcxMeNxz3PXQRNf5tLlvFfqZjv2kRwtPzKB_zZod7sMHYaIZUqKRMPFnFCUTeBQtVANnlCQPMVV4pGD9HNrIfyAjJS7v-N4dscihXgJu9CzPUo_W_DHu7SyszFyuxciRDKrE4ZQDeDgZ_fa3s_rwZpWW3USxrrk9uqp-XId_7vYoVUjasSE5aoj_e2jVUgUq_9GPwcABn10xpJVOPg9ed16rk8clqXTR1EdjQiT185mdFUbbxmlNB6ziIASZpariy2RUqK6Mt5AUEFKsUmD9o5XMk5P3EPlE-kvNfszckFfQmDrBfhSOoH37gNc2a1PX_RPIdxOdJDpYIphgSBN_gV2ymWHrD3hgjQunvT1pqe2mpVnVjDRacojnnpDahUy9J6it_W80]--></g></svg>